<svg width="484" height="371" viewBox="0 0 484 371" fill="none" xmlns="http://www.w3.org/2000/svg">
<rect y="243" width="16" height="16" fill="#001931"/>
<rect y="275" width="16" height="16" fill="#99ABB4"/>
<rect y="307" width="16" height="16" fill="#FFFBF5"/>
<path d="M3.96 16.6C3.96 20.08 6.72 22.84 10.2 22.84C13.68 22.84 16.44 20.08 16.44 16.6C16.44 13.12 13.68 10.36 10.2 10.36C6.72 10.36 3.96 13.12 3.96 16.6ZM1.32 16.6C1.32 11.8 5.16 7.96 10.2 7.96C15.24 7.96 19.08 11.8 19.08 16.6C19.08 21.4 15.24 25.24 10.2 25.24C5.16 25.24 1.32 21.4 1.32 16.6ZM22.0706 20.2V13.48H24.4706V20.2C24.4706 21.904 25.5506 22.96 27.1106 22.96C28.9106 22.96 30.2306 21.64 30.2306 19.72V13.48H32.6306V25H30.2306V23.32C29.9666 23.68 29.6786 23.992 29.3186 24.28C28.7186 24.76 27.8546 25.24 26.6306 25.24C23.9906 25.24 22.0706 23.344 22.0706 20.2ZM35.9925 25V13.48H38.3925V15.04C38.6565 14.728 38.9445 14.416 39.2805 14.152C39.8565 13.696 40.7205 13.24 41.8725 13.24H42.4725V15.76L42.1605 15.712C41.9685 15.688 41.7765 15.64 41.5125 15.64C39.8565 15.64 38.3925 17.08 38.3925 19.12V25H35.9925ZM49.9313 25V8.2H52.3313L58.6913 16.36L65.0513 8.2H67.4513V25H64.8113V12.64L58.6913 20.44L52.5713 12.64V25H49.9313ZM71.5238 20.2V13.48H73.9238V20.2C73.9238 21.904 75.0038 22.96 76.5638 22.96C78.3638 22.96 79.6838 21.64 79.6838 19.72V13.48H82.0838V25H79.6838V23.32C79.4198 23.68 79.1318 23.992 78.7718 24.28C78.1718 24.76 77.3078 25.24 76.0838 25.24C73.4438 25.24 71.5238 23.344 71.5238 20.2ZM85.5656 25V8.2H87.9656V25H85.5656ZM92.6456 21.4V15.76H90.4856V13.48H91.8056C92.5496 13.48 92.8856 13.12 92.8856 12.16V9.64H95.0456V13.48H97.6856V15.76H95.0456V21.16C95.0456 22.36 95.5976 22.96 96.7256 22.96C97.0856 22.96 97.3976 22.888 97.6616 22.792L98.0456 22.6V24.88L97.5416 25.072C97.2296 25.168 96.7976 25.24 96.2456 25.24C93.9416 25.24 92.6456 23.92 92.6456 21.4ZM101.034 25V13.48H103.434V25H101.034ZM100.794 9.88C100.794 9.04 101.49 8.44 102.234 8.44C102.978 8.44 103.674 9.04 103.674 9.88C103.674 10.72 102.978 11.32 102.234 11.32C101.49 11.32 100.794 10.72 100.794 9.88ZM125.753 20.2L127.433 21.88C126.929 22.504 126.353 23.056 125.657 23.56C124.481 24.4 122.777 25.24 120.473 25.24C115.433 25.24 111.593 21.4 111.593 16.6C111.593 11.8 115.433 7.96 120.473 7.96C122.777 7.96 124.457 8.752 125.609 9.592C126.257 10.072 126.833 10.6 127.313 11.2L125.633 12.88C125.297 12.424 124.865 11.992 124.361 11.632C123.497 10.984 122.201 10.36 120.473 10.36C116.993 10.36 114.233 13.12 114.233 16.6C114.233 20.08 116.993 22.84 120.473 22.84C122.201 22.84 123.521 22.192 124.409 21.52C124.937 21.136 125.393 20.704 125.753 20.2ZM129.956 25V8.2H132.356V15.16C132.596 14.8 132.884 14.488 133.244 14.2C133.844 13.72 134.732 13.24 135.956 13.24C138.596 13.24 140.516 15.136 140.516 18.28V25H138.116V18.28C138.116 16.576 137.036 15.52 135.476 15.52C133.676 15.52 132.356 16.84 132.356 18.76V25H129.956ZM150.595 25V23.32C150.355 23.68 150.043 23.992 149.683 24.28C149.035 24.76 148.123 25.24 146.875 25.24C144.571 25.24 143.035 23.68 143.035 21.88C143.035 19.96 144.355 18.64 146.395 18.28L150.595 17.56C150.595 16.336 149.635 15.4 148.195 15.4C147.259 15.4 146.563 15.808 146.011 16.192C145.699 16.408 145.435 16.672 145.195 16.96L143.635 15.4C143.947 14.992 144.331 14.632 144.787 14.32C145.555 13.768 146.659 13.24 148.195 13.24C151.075 13.24 152.995 15.16 152.995 17.68V25H150.595ZM150.595 19.84V19.48L147.235 20.08C146.011 20.296 145.435 20.896 145.435 21.64C145.435 22.48 146.131 23.2 147.355 23.2C149.155 23.2 150.595 21.76 150.595 19.84ZM156.344 25V13.48H158.744V15.16C158.984 14.8 159.272 14.488 159.632 14.2C160.232 13.72 161.12 13.24 162.344 13.24C164.984 13.24 166.904 15.136 166.904 18.28V25H164.504V18.28C164.504 16.576 163.424 15.52 161.864 15.52C160.064 15.52 158.744 16.84 158.744 18.76V25H156.344ZM170.266 25V13.48H172.666V15.16C172.906 14.8 173.194 14.488 173.554 14.2C174.154 13.72 175.042 13.24 176.266 13.24C178.906 13.24 180.826 15.136 180.826 18.28V25H178.426V18.28C178.426 16.576 177.346 15.52 175.786 15.52C173.986 15.52 172.666 16.84 172.666 18.76V25H170.266ZM192.948 21.4L194.388 23.08C194.076 23.488 193.668 23.848 193.188 24.16C192.348 24.712 191.172 25.24 189.468 25.24C186.108 25.24 183.468 22.6 183.468 19.24C183.468 15.88 186.108 13.24 189.348 13.24C192.612 13.24 194.988 15.616 194.988 18.88C194.988 19.24 194.94 19.528 194.916 19.744L194.868 20.08H185.988C186.252 21.64 187.644 22.96 189.588 22.96C190.62 22.96 191.46 22.576 192.036 22.192C192.372 21.976 192.684 21.712 192.948 21.4ZM185.988 18.04H192.468C192.108 16.48 191.052 15.4 189.348 15.4C187.524 15.4 186.468 16.48 185.988 18.04ZM197.738 25V8.2H200.138V25H197.738ZM209.377 25V8.2H215.017C219.937 8.2 223.777 12.064 223.777 16.6C223.777 21.136 219.937 25 215.017 25H209.377ZM212.017 22.6H215.017C218.497 22.6 221.137 19.96 221.137 16.6C221.137 13.24 218.497 10.6 215.017 10.6H212.017V22.6ZM226.894 25V13.48H229.294V25H226.894ZM226.654 9.88C226.654 9.04 227.35 8.44 228.094 8.44C228.838 8.44 229.534 9.04 229.534 9.88C229.534 10.72 228.838 11.32 228.094 11.32C227.35 11.32 226.654 10.72 226.654 9.88ZM231.694 23.08L233.254 21.52C233.494 21.832 233.758 22.096 234.07 22.312C234.622 22.696 235.318 23.08 236.254 23.08C237.598 23.08 238.294 22.384 238.294 21.64C238.294 19.72 232.174 20.704 232.174 16.6C232.174 14.8 233.758 13.24 236.374 13.24C237.742 13.24 238.774 13.648 239.446 14.032C239.854 14.248 240.19 14.512 240.454 14.8L238.894 16.36C238.702 16.192 238.486 16.024 238.222 15.88C237.766 15.616 237.142 15.4 236.374 15.4C235.15 15.4 234.574 16 234.574 16.6C234.574 18.52 240.694 17.56 240.694 21.64C240.694 23.56 239.038 25.24 236.254 25.24C234.718 25.24 233.614 24.712 232.846 24.16C232.39 23.848 232.006 23.488 231.694 23.08ZM244.403 21.4V15.76H242.243V13.48H243.563C244.307 13.48 244.643 13.12 244.643 12.16V9.64H246.803V13.48H249.443V15.76H246.803V21.16C246.803 22.36 247.355 22.96 248.483 22.96C248.843 22.96 249.155 22.888 249.419 22.792L249.803 22.6V24.88L249.299 25.072C248.987 25.168 248.555 25.24 248.003 25.24C245.699 25.24 244.403 23.92 244.403 21.4ZM252.672 25V13.48H255.072V15.04C255.336 14.728 255.624 14.416 255.96 14.152C256.536 13.696 257.4 13.24 258.552 13.24H259.152V15.76L258.84 15.712C258.648 15.688 258.456 15.64 258.192 15.64C256.536 15.64 255.072 17.08 255.072 19.12V25H252.672ZM261.441 25V13.48H263.841V25H261.441ZM261.201 9.88C261.201 9.04 261.897 8.44 262.641 8.44C263.385 8.44 264.081 9.04 264.081 9.88C264.081 10.72 263.385 11.32 262.641 11.32C261.897 11.32 261.201 10.72 261.201 9.88ZM267.441 25V8.2H269.841V15.16C270.081 14.8 270.393 14.488 270.777 14.2C271.425 13.72 272.385 13.24 273.801 13.24C276.681 13.24 279.201 15.76 279.201 19.24C279.201 22.72 276.681 25.24 273.801 25.24C272.385 25.24 271.425 24.76 270.777 24.28C270.393 23.992 270.081 23.68 269.841 23.32V25H267.441ZM273.321 22.96C275.241 22.96 276.801 21.424 276.801 19.24C276.801 17.056 275.241 15.52 273.321 15.52C271.401 15.52 269.841 17.056 269.841 19.24C269.841 21.424 271.401 22.96 273.321 22.96ZM281.852 20.2V13.48H284.252V20.2C284.252 21.904 285.332 22.96 286.892 22.96C288.692 22.96 290.012 21.64 290.012 19.72V13.48H292.412V25H290.012V23.32C289.748 23.68 289.46 23.992 289.1 24.28C288.5 24.76 287.636 25.24 286.412 25.24C283.772 25.24 281.852 23.344 281.852 20.2ZM296.974 21.4V15.76H294.814V13.48H296.134C296.878 13.48 297.214 13.12 297.214 12.16V9.64H299.374V13.48H302.014V15.76H299.374V21.16C299.374 22.36 299.926 22.96 301.054 22.96C301.414 22.96 301.726 22.888 301.99 22.792L302.374 22.6V24.88L301.87 25.072C301.558 25.168 301.126 25.24 300.574 25.24C298.27 25.24 296.974 23.92 296.974 21.4ZM305.363 25V13.48H307.763V25H305.363ZM305.123 9.88C305.123 9.04 305.819 8.44 306.562 8.44C307.307 8.44 308.003 9.04 308.003 9.88C308.003 10.72 307.307 11.32 306.562 11.32C305.819 11.32 305.123 10.72 305.123 9.88ZM310.523 19.24C310.523 15.88 313.163 13.24 316.523 13.24C319.883 13.24 322.523 15.88 322.523 19.24C322.523 22.6 319.883 25.24 316.523 25.24C313.163 25.24 310.523 22.6 310.523 19.24ZM316.523 22.96C318.563 22.96 320.123 21.424 320.123 19.24C320.123 17.056 318.563 15.52 316.523 15.52C314.483 15.52 312.923 17.056 312.923 19.24C312.923 21.424 314.483 22.96 316.523 22.96ZM325.164 25V13.48H327.564V15.16C327.804 14.8 328.092 14.488 328.452 14.2C329.052 13.72 329.94 13.24 331.164 13.24C333.804 13.24 335.724 15.136 335.724 18.28V25H333.324V18.28C333.324 16.576 332.244 15.52 330.684 15.52C328.884 15.52 327.564 16.84 327.564 18.76V25H325.164Z" fill="#001931"/>
<path d="M0.9 345.96L1.92 344.7L0.42 344.34L0.66 343.68L2.1 344.16L1.98 342.6H2.7L2.58 344.16L4.02 343.68L4.26 344.34L2.76 344.7L3.78 345.96L3.24 346.38L2.34 345.06L1.44 346.38L0.9 345.96ZM7.91531 346.8C7.91531 344.4 9.83531 342.48 12.2353 342.48C14.6353 342.48 16.5553 344.4 16.5553 346.8C16.5553 349.2 14.6353 351.12 12.2353 351.12C9.83531 351.12 7.91531 349.2 7.91531 346.8ZM12.2353 350.28C14.1553 350.28 15.6553 348.78 15.6553 346.8C15.6553 344.82 14.1553 343.32 12.2353 343.32C10.3153 343.32 8.81531 344.82 8.81531 346.8C8.81531 348.78 10.3153 350.28 12.2353 350.28ZM18.2334 351V345.24H19.0734V346.08C19.1934 345.9 19.3494 345.744 19.5294 345.6C19.8534 345.36 20.2974 345.12 20.9334 345.12C22.3134 345.12 23.2734 346.08 23.2734 347.58V351H22.4334V347.58C22.4334 346.56 21.7854 345.9 20.8734 345.9C19.8534 345.9 19.0734 346.668 19.0734 347.82V351H18.2334ZM25.2544 351V342.6H26.0944V351H25.2544ZM27.9572 343.32C27.9572 343.02 28.1972 342.78 28.4972 342.78C28.7972 342.78 29.0372 343.02 29.0372 343.32C29.0372 343.62 28.7972 343.86 28.4972 343.86C28.1972 343.86 27.9572 343.62 27.9572 343.32ZM28.0772 351V345.24H28.9172V351H28.0772ZM30.8428 351V345.24H31.6828V346.08C31.8028 345.9 31.9588 345.744 32.1388 345.6C32.4628 345.36 32.9068 345.12 33.5428 345.12C34.9228 345.12 35.8828 346.08 35.8828 347.58V351H35.0428V347.58C35.0428 346.56 34.3948 345.9 33.4828 345.9C32.4628 345.9 31.6828 346.668 31.6828 347.82V351H30.8428ZM42.1238 349.38L42.6638 349.92C42.4958 350.148 42.2918 350.34 42.0518 350.52C41.6318 350.82 41.0438 351.12 40.2638 351.12C38.6918 351.12 37.3838 349.8 37.3838 348.12C37.3838 346.44 38.7038 345.12 40.2038 345.12C41.7758 345.12 42.9638 346.32 42.9638 348C42.9638 348.132 42.9398 348.228 42.9278 348.312L42.9037 348.432L38.2238 348.42C38.2838 349.44 39.1718 350.34 40.2638 350.34C40.8758 350.34 41.3198 350.1 41.6438 349.86C41.8238 349.716 41.9918 349.56 42.1238 349.38ZM38.2238 347.7H42.1238C41.9918 346.68 41.2238 345.9 40.2038 345.9C39.1718 345.9 38.3558 346.74 38.2238 347.7ZM46.8595 343.32C46.8595 343.02 47.0995 342.78 47.3995 342.78C47.6995 342.78 47.9395 343.02 47.9395 343.32C47.9395 343.62 47.6995 343.86 47.3995 343.86C47.0995 343.86 46.8595 343.62 46.8595 343.32ZM46.9795 351V345.24H47.8195V351H46.9795ZM49.7452 351V345.24H50.5852V346.08C50.7052 345.9 50.8612 345.744 51.0412 345.6C51.3652 345.36 51.8092 345.12 52.4452 345.12C53.8252 345.12 54.7852 346.08 54.7852 347.58V351H53.9452V347.58C53.9452 346.56 53.2972 345.9 52.3852 345.9C51.3652 345.9 50.5852 346.668 50.5852 347.82V351H49.7452ZM60.9661 349.38L61.5661 349.92C61.3861 350.148 61.1701 350.34 60.9301 350.52C60.5101 350.82 59.9221 351.12 59.1661 351.12C57.5941 351.12 56.2861 349.8 56.2861 348.12C56.2861 346.44 57.5941 345.12 59.1661 345.12C59.9221 345.12 60.4981 345.408 60.8941 345.696C61.1221 345.864 61.3261 346.056 61.5061 346.26L60.9061 346.86C60.7741 346.68 60.6301 346.524 60.4621 346.38C60.1741 346.14 59.7301 345.9 59.1661 345.9C58.0861 345.9 57.1261 346.86 57.1261 348.12C57.1261 349.38 58.0861 350.34 59.1661 350.34C59.7301 350.34 60.1741 350.1 60.4981 349.86C60.6781 349.716 60.8341 349.56 60.9661 349.38ZM62.9419 351V342.6H63.7819V351H62.9419ZM65.7647 348.6V345.24H66.6047V348.6C66.6047 349.62 67.3247 350.34 68.2247 350.34C69.1847 350.34 69.9647 349.572 69.9647 348.42V345.24H70.8047V351H69.9647V350.22C69.8447 350.388 69.6887 350.544 69.5087 350.676C69.1847 350.904 68.7287 351.12 68.1047 351.12C66.7847 351.12 65.7647 350.1 65.7647 348.6ZM77.1642 351V350.16C77.0322 350.34 76.8642 350.496 76.6722 350.64C76.3362 350.88 75.8562 351.12 75.1842 351.12C73.6242 351.12 72.3642 349.86 72.3642 348.12C72.3642 346.38 73.6242 345.12 75.1842 345.12C75.8562 345.12 76.3362 345.36 76.6722 345.6C76.8642 345.744 77.0322 345.9 77.1642 346.08V342.6H78.0042V351H77.1642ZM75.1842 350.34C76.1922 350.34 77.1642 349.38 77.1642 348.12C77.1642 346.86 76.1922 345.9 75.1842 345.9C74.0922 345.9 73.2042 346.812 73.2042 348.12C73.2042 349.428 74.0922 350.34 75.1842 350.34ZM84.2995 349.38L84.8395 349.92C84.6715 350.148 84.4675 350.34 84.2275 350.52C83.8075 350.82 83.2195 351.12 82.4395 351.12C80.8675 351.12 79.5595 349.8 79.5595 348.12C79.5595 346.44 80.8795 345.12 82.3795 345.12C83.9515 345.12 85.1395 346.32 85.1395 348C85.1395 348.132 85.1155 348.228 85.1035 348.312L85.0795 348.432L80.3995 348.42C80.4595 349.44 81.3475 350.34 82.4395 350.34C83.0515 350.34 83.4955 350.1 83.8195 349.86C83.9995 349.716 84.1675 349.56 84.2995 349.38ZM80.3995 347.7H84.2995C84.1675 346.68 83.3995 345.9 82.3795 345.9C81.3475 345.9 80.5315 346.74 80.3995 347.7ZM86.0958 350.1L86.6958 349.5C86.8038 349.656 86.9358 349.8 87.0798 349.92C87.3318 350.148 87.7158 350.34 88.1958 350.34C89.0478 350.34 89.4558 349.92 89.4558 349.38C89.4558 348.06 86.3358 348.72 86.3358 346.74C86.3358 345.912 87.1038 345.12 88.2558 345.12C88.8678 345.12 89.3118 345.324 89.6358 345.516C89.8158 345.624 89.9838 345.756 90.1158 345.9L89.5158 346.5C89.4318 346.392 89.3238 346.284 89.2038 346.2C88.9758 346.056 88.6758 345.9 88.2558 345.9C87.5958 345.9 87.1758 346.32 87.1758 346.74C87.1758 348 90.2958 347.34 90.2958 349.38C90.2958 350.34 89.5038 351.12 88.1958 351.12C87.4758 351.12 86.9478 350.868 86.5998 350.616C86.3958 350.472 86.2278 350.304 86.0958 350.1ZM98.6316 349.38L99.1716 349.92C99.0036 350.148 98.7996 350.34 98.5596 350.52C98.1396 350.82 97.5516 351.12 96.7716 351.12C95.1996 351.12 93.8916 349.8 93.8916 348.12C93.8916 346.44 95.2116 345.12 96.7116 345.12C98.2836 345.12 99.4716 346.32 99.4716 348C99.4716 348.132 99.4476 348.228 99.4356 348.312L99.4116 348.432L94.7316 348.42C94.7916 349.44 95.6796 350.34 96.7716 350.34C97.3836 350.34 97.8276 350.1 98.1516 349.86C98.3316 349.716 98.4996 349.56 98.6316 349.38ZM94.7316 347.7H98.6316C98.4996 346.68 97.7316 345.9 96.7116 345.9C95.6796 345.9 94.8636 346.74 94.7316 347.7ZM103.128 351L100.368 342.6H101.328L103.548 349.62L105.828 342.6H106.668L108.948 349.62L111.168 342.6H112.128L109.368 351H108.468L106.248 343.98L104.028 351H103.128ZM113.748 351V342.6H114.648V346.32H119.328V342.6H120.228V351H119.328V347.16H114.648V351H113.748ZM122.028 349.86L122.568 349.248C122.724 349.452 122.904 349.62 123.12 349.764C123.492 350.04 124.068 350.28 124.848 350.28C126.108 350.28 126.768 349.632 126.768 348.72C126.768 346.572 122.208 347.748 122.208 344.76C122.208 343.548 123.24 342.48 124.908 342.48C125.724 342.48 126.324 342.744 126.744 343.02C126.984 343.176 127.188 343.356 127.368 343.56L126.768 344.16C126.636 344.004 126.48 343.872 126.3 343.74C125.976 343.536 125.532 343.32 124.908 343.32C123.756 343.32 123.108 344.004 123.108 344.76C123.108 346.92 127.668 345.732 127.668 348.72C127.668 350.1 126.648 351.12 124.848 351.12C123.888 351.12 123.18 350.82 122.712 350.496C122.436 350.316 122.208 350.1 122.028 349.86ZM128.273 352.26L129.353 349.92L130.193 350.4L128.813 352.56L128.273 352.26ZM1.26 367V358.6H4.62C6.12 358.6 7.2 359.68 7.2 361.12C7.2 362.08 6.756 362.668 6.324 363.04C6.072 363.244 5.784 363.412 5.46 363.52L7.44 367H6.42L4.56 363.64H2.16V367H1.26ZM2.16 362.8H4.62C5.64 362.8 6.3 362.14 6.3 361.12C6.3 360.1 5.64 359.44 4.62 359.44H2.16V362.8ZM8.94047 364.6V361.24H9.78047V364.6C9.78047 365.62 10.5005 366.34 11.4005 366.34C12.3605 366.34 13.1405 365.572 13.1405 364.42V361.24H13.9805V367H13.1405V366.22C13.0205 366.388 12.8645 366.544 12.6845 366.676C12.3605 366.904 11.9045 367.12 11.2805 367.12C9.96047 367.12 8.94047 366.1 8.94047 364.6ZM15.42 366.1L16.02 365.5C16.128 365.656 16.26 365.8 16.404 365.92C16.656 366.148 17.04 366.34 17.52 366.34C18.372 366.34 18.78 365.92 18.78 365.38C18.78 364.06 15.66 364.72 15.66 362.74C15.66 361.912 16.428 361.12 17.58 361.12C18.192 361.12 18.636 361.324 18.96 361.516C19.14 361.624 19.308 361.756 19.44 361.9L18.84 362.5C18.756 362.392 18.648 362.284 18.528 362.2C18.3 362.056 18 361.9 17.58 361.9C16.92 361.9 16.5 362.32 16.5 362.74C16.5 364 19.62 363.34 19.62 365.38C19.62 366.34 18.828 367.12 17.52 367.12C16.8 367.12 16.272 366.868 15.924 366.616C15.72 366.472 15.552 366.304 15.42 366.1ZM20.5763 366.1L21.1763 365.5C21.2843 365.656 21.4163 365.8 21.5603 365.92C21.8123 366.148 22.1963 366.34 22.6763 366.34C23.5283 366.34 23.9363 365.92 23.9363 365.38C23.9363 364.06 20.8163 364.72 20.8163 362.74C20.8163 361.912 21.5843 361.12 22.7363 361.12C23.3483 361.12 23.7923 361.324 24.1163 361.516C24.2963 361.624 24.4643 361.756 24.5963 361.9L23.9963 362.5C23.9123 362.392 23.8043 362.284 23.6842 362.2C23.4563 362.056 23.1562 361.9 22.7363 361.9C22.0763 361.9 21.6562 362.32 21.6562 362.74C21.6562 364 24.7763 363.34 24.7763 365.38C24.7763 366.34 23.9843 367.12 22.6763 367.12C21.9563 367.12 21.4283 366.868 21.0803 366.616C20.8763 366.472 20.7083 366.304 20.5763 366.1ZM26.1525 359.32C26.1525 359.02 26.3925 358.78 26.6925 358.78C26.9925 358.78 27.2325 359.02 27.2325 359.32C27.2325 359.62 26.9925 359.86 26.6925 359.86C26.3925 359.86 26.1525 359.62 26.1525 359.32ZM26.2725 367V361.24H27.1125V367H26.2725ZM32.5181 367V366.22C32.3981 366.388 32.2421 366.544 32.0621 366.676C31.7381 366.904 31.2821 367.12 30.6581 367.12C29.4581 367.12 28.6181 366.28 28.6181 365.44C28.6181 364.48 29.2061 363.88 30.2981 363.7L32.5181 363.34C32.5181 362.488 31.9301 361.9 31.0781 361.9C30.5621 361.9 30.1661 362.116 29.8901 362.32C29.7341 362.452 29.5901 362.584 29.4581 362.74L28.9181 362.2C29.0741 361.996 29.2661 361.816 29.4821 361.66C29.8541 361.384 30.3701 361.12 31.0781 361.12C32.3981 361.12 33.3581 362.08 33.3581 363.34V367H32.5181ZM32.5181 364.42V364.06L30.5381 364.42C29.8181 364.552 29.4581 364.9 29.4581 365.44C29.4581 365.92 29.8781 366.34 30.6581 366.34C31.7501 366.34 32.5181 365.572 32.5181 364.42ZM42.112 365.38L42.652 365.92C42.484 366.148 42.28 366.34 42.04 366.52C41.62 366.82 41.032 367.12 40.252 367.12C38.68 367.12 37.372 365.8 37.372 364.12C37.372 362.44 38.692 361.12 40.192 361.12C41.764 361.12 42.952 362.32 42.952 364C42.952 364.132 42.928 364.228 42.916 364.312L42.892 364.432L38.212 364.42C38.272 365.44 39.16 366.34 40.252 366.34C40.864 366.34 41.308 366.1 41.632 365.86C41.812 365.716 41.98 365.56 42.112 365.38ZM38.212 363.7H42.112C41.98 362.68 41.212 361.9 40.192 361.9C39.16 361.9 38.344 362.74 38.212 363.7ZM46.6083 367L43.8483 358.6H44.8083L47.0283 365.62L49.3083 358.6H50.1483L52.4283 365.62L54.6483 358.6H55.6083L52.8483 367H51.9483L49.7283 359.98L47.5083 367H46.6083ZM57.2288 367V358.6H58.1288V362.32H62.8088V358.6H63.7088V367H62.8088V363.16H58.1288V367H57.2288ZM65.5088 365.86L66.0488 365.248C66.2048 365.452 66.3848 365.62 66.6008 365.764C66.9728 366.04 67.5488 366.28 68.3288 366.28C69.5888 366.28 70.2488 365.632 70.2488 364.72C70.2488 362.572 65.6888 363.748 65.6888 360.76C65.6888 359.548 66.7208 358.48 68.3888 358.48C69.2048 358.48 69.8048 358.744 70.2248 359.02C70.4648 359.176 70.6688 359.356 70.8488 359.56L70.2488 360.16C70.1168 360.004 69.9608 359.872 69.7808 359.74C69.4568 359.536 69.0128 359.32 68.3888 359.32C67.2368 359.32 66.5888 360.004 66.5888 360.76C66.5888 362.92 71.1488 361.732 71.1488 364.72C71.1488 366.1 70.1288 367.12 68.3288 367.12C67.3688 367.12 66.6608 366.82 66.1928 366.496C65.9168 366.316 65.6888 366.1 65.5088 365.86ZM77.7534 362.62L79.6734 364.96C79.7694 364.804 79.8534 364.612 79.9374 364.408C80.0694 364.06 80.2134 363.556 80.2134 362.92H80.9934C80.9934 363.736 80.7894 364.408 80.5974 364.876C80.4894 365.152 80.3574 365.392 80.2134 365.62C80.2974 365.752 80.3934 365.872 80.5014 365.98C80.6814 366.16 80.8974 366.34 81.1734 366.34C81.2574 366.34 81.3294 366.328 81.4134 366.316L81.5334 366.28V367.06L81.4014 367.096C81.3174 367.108 81.2094 367.12 81.1134 367.12C80.6934 367.12 80.3454 366.88 80.1054 366.64C79.9614 366.496 79.8414 366.34 79.7334 366.16C79.5654 366.34 79.3734 366.496 79.1574 366.64C78.7854 366.88 78.2334 367.12 77.5134 367.12C76.0734 367.12 75.1134 366.16 75.1134 365.08C75.1134 364.324 75.4974 363.724 75.9174 363.292C76.1574 363.04 76.4334 362.812 76.7334 362.62C76.4934 362.38 76.2774 362.128 76.0974 361.864C75.7734 361.42 75.4734 360.856 75.4734 360.34C75.4734 359.332 76.3134 358.48 77.3934 358.48C78.4734 358.48 79.3134 359.32 79.3134 360.28C79.3134 360.916 78.9174 361.492 78.5334 361.924C78.3054 362.176 78.0414 362.416 77.7534 362.62ZM77.3334 362.08C77.5614 361.912 77.7534 361.732 77.9334 361.528C78.2334 361.204 78.5334 360.76 78.5334 360.34C78.5334 359.728 78.0654 359.26 77.3934 359.26C76.7214 359.26 76.2534 359.728 76.2534 360.34C76.2534 360.712 76.5174 361.132 76.7934 361.48C76.9494 361.684 77.1294 361.888 77.3334 362.08ZM79.1934 365.62L77.2134 363.1C76.9614 363.292 76.7454 363.496 76.5534 363.712C76.2174 364.084 75.8934 364.564 75.8934 365.08C75.8934 365.848 76.4934 366.34 77.5134 366.34C78.0534 366.34 78.4734 366.16 78.7614 365.98C78.9294 365.872 79.0734 365.752 79.1934 365.62ZM89.573 365.38L90.113 365.92C89.945 366.148 89.741 366.34 89.501 366.52C89.081 366.82 88.493 367.12 87.713 367.12C86.141 367.12 84.833 365.8 84.833 364.12C84.833 362.44 86.153 361.12 87.653 361.12C89.225 361.12 90.413 362.32 90.413 364C90.413 364.132 90.389 364.228 90.377 364.312L90.353 364.432L85.673 364.42C85.733 365.44 86.621 366.34 87.713 366.34C88.325 366.34 88.769 366.1 89.093 365.86C89.273 365.716 89.441 365.56 89.573 365.38ZM85.673 363.7H89.573C89.441 362.68 88.673 361.9 87.653 361.9C86.621 361.9 85.805 362.74 85.673 363.7ZM91.4892 365.86L92.0292 365.248C92.1852 365.452 92.3652 365.62 92.5812 365.764C92.9532 366.04 93.5292 366.28 94.3092 366.28C95.5692 366.28 96.2292 365.632 96.2292 364.72C96.2292 362.572 91.6692 363.748 91.6692 360.76C91.6692 359.548 92.7012 358.48 94.3692 358.48C95.1852 358.48 95.7852 358.744 96.2052 359.02C96.4452 359.176 96.6492 359.356 96.8292 359.56L96.2292 360.16C96.0972 360.004 95.9412 359.872 95.7612 359.74C95.4372 359.536 94.9932 359.32 94.3692 359.32C93.2172 359.32 92.5692 360.004 92.5692 360.76C92.5692 362.92 97.1292 361.732 97.1292 364.72C97.1292 366.1 96.1092 367.12 94.3092 367.12C93.3492 367.12 92.6412 366.82 92.1732 366.496C91.8972 366.316 91.6692 366.1 91.4892 365.86ZM98.7544 367V358.6H99.5944V362.08C99.7144 361.9 99.8704 361.744 100.05 361.6C100.374 361.36 100.818 361.12 101.454 361.12C102.834 361.12 103.794 362.08 103.794 363.58V367H102.954V363.58C102.954 362.56 102.306 361.9 101.394 361.9C100.374 361.9 99.5944 362.668 99.5944 363.82V367H98.7544ZM108.234 367.12C106.614 367.12 105.294 365.8 105.294 364.12C105.294 362.44 106.614 361.12 108.234 361.12C109.854 361.12 111.174 362.44 111.174 364.12C111.174 365.8 109.854 367.12 108.234 367.12ZM108.234 366.34C109.374 366.34 110.334 365.38 110.334 364.12C110.334 362.86 109.374 361.9 108.234 361.9C107.094 361.9 106.134 362.86 106.134 364.12C106.134 365.368 107.094 366.34 108.234 366.34ZM112.675 369.52V361.24H113.515V362.08C113.647 361.9 113.803 361.744 114.007 361.6C114.331 361.36 114.823 361.12 115.495 361.12C117.055 361.12 118.315 362.38 118.315 364.12C118.315 365.86 117.055 367.12 115.495 367.12C114.823 367.12 114.331 366.88 114.007 366.64C113.803 366.496 113.647 366.34 113.515 366.16V369.52H112.675ZM115.495 366.34C116.587 366.34 117.475 365.428 117.475 364.12C117.475 362.812 116.587 361.9 115.495 361.9C114.487 361.9 113.515 362.86 113.515 364.12C113.515 365.38 114.487 366.34 115.495 366.34Z" fill="#001931"/>
<path d="M28.16 257L24.48 245.8H25.76L28.72 255.16L31.76 245.8H32.88L35.92 255.16L38.88 245.8H40.16L36.48 257H35.28L32.32 247.64L29.36 257H28.16ZM41.6881 257V245.8H42.8081V250.44C42.9681 250.2 43.1761 249.992 43.4161 249.8C43.8481 249.48 44.4401 249.16 45.2881 249.16C47.1281 249.16 48.4081 250.44 48.4081 252.44V257H47.2881V252.44C47.2881 251.08 46.4241 250.2 45.2081 250.2C43.8481 250.2 42.8081 251.224 42.8081 252.76V257H41.6881ZM54.3275 257.16C52.1675 257.16 50.4075 255.4 50.4075 253.16C50.4075 250.92 52.1675 249.16 54.3275 249.16C56.4875 249.16 58.2475 250.92 58.2475 253.16C58.2475 255.4 56.4875 257.16 54.3275 257.16ZM54.3275 256.12C55.8475 256.12 57.1275 254.84 57.1275 253.16C57.1275 251.48 55.8475 250.2 54.3275 250.2C52.8075 250.2 51.5275 251.48 51.5275 253.16C51.5275 254.824 52.8075 256.12 54.3275 256.12ZM60.3288 257V245.8H61.4488V257H60.3288ZM69.8525 254.84L70.5725 255.56C70.3485 255.864 70.0765 256.12 69.7565 256.36C69.1965 256.76 68.4125 257.16 67.3725 257.16C65.2765 257.16 63.5325 255.4 63.5325 253.16C63.5325 250.92 65.2925 249.16 67.2925 249.16C69.3885 249.16 70.9725 250.76 70.9725 253C70.9725 253.176 70.9405 253.304 70.9245 253.416L70.8925 253.576L64.6525 253.56C64.7325 254.92 65.9165 256.12 67.3725 256.12C68.1885 256.12 68.7805 255.8 69.2125 255.48C69.4525 255.288 69.6765 255.08 69.8525 254.84ZM64.6525 252.6H69.8525C69.6765 251.24 68.6525 250.2 67.2925 250.2C65.9165 250.2 64.8285 251.32 64.6525 252.6ZM72.2475 255.8L73.0475 255C73.1915 255.208 73.3675 255.4 73.5595 255.56C73.8955 255.864 74.4075 256.12 75.0475 256.12C76.1835 256.12 76.7275 255.56 76.7275 254.84C76.7275 253.08 72.5675 253.96 72.5675 251.32C72.5675 250.216 73.5915 249.16 75.1275 249.16C75.9435 249.16 76.5355 249.432 76.9675 249.688C77.2075 249.832 77.4315 250.008 77.6075 250.2L76.8075 251C76.6955 250.856 76.5515 250.712 76.3915 250.6C76.0875 250.408 75.6875 250.2 75.1275 250.2C74.2475 250.2 73.6875 250.76 73.6875 251.32C73.6875 253 77.8475 252.12 77.8475 254.84C77.8475 256.12 76.7915 257.16 75.0475 257.16C74.0875 257.16 73.3835 256.824 72.9195 256.488C72.6475 256.296 72.4235 256.072 72.2475 255.8ZM84.4825 257V255.96C84.3225 256.184 84.1145 256.392 83.8745 256.568C83.4425 256.872 82.8345 257.16 82.0025 257.16C80.4025 257.16 79.2825 256.04 79.2825 254.92C79.2825 253.64 80.0665 252.84 81.5225 252.6L84.4825 252.12C84.4825 250.984 83.6985 250.2 82.5625 250.2C81.8745 250.2 81.3465 250.488 80.9785 250.76C80.7705 250.936 80.5785 251.112 80.4025 251.32L79.6825 250.6C79.8905 250.328 80.1465 250.088 80.4345 249.88C80.9305 249.512 81.6185 249.16 82.5625 249.16C84.3225 249.16 85.6025 250.44 85.6025 252.12V257H84.4825ZM84.4825 253.56V253.08L81.8425 253.56C80.8825 253.736 80.4025 254.2 80.4025 254.92C80.4025 255.56 80.9625 256.12 82.0025 256.12C83.4585 256.12 84.4825 255.096 84.4825 253.56ZM88.235 257V245.8H89.355V257H88.235ZM97.7588 254.84L98.4788 255.56C98.2548 255.864 97.9828 256.12 97.6628 256.36C97.1028 256.76 96.3188 257.16 95.2788 257.16C93.1828 257.16 91.4388 255.4 91.4388 253.16C91.4388 250.92 93.1988 249.16 95.1988 249.16C97.2948 249.16 98.8788 250.76 98.8788 253C98.8788 253.176 98.8468 253.304 98.8308 253.416L98.7987 253.576L92.5588 253.56C92.6388 254.92 93.8228 256.12 95.2788 256.12C96.0948 256.12 96.6868 255.8 97.1188 255.48C97.3588 255.288 97.5828 255.08 97.7588 254.84ZM92.5588 252.6H97.7588C97.5828 251.24 96.5588 250.2 95.1988 250.2C93.8228 250.2 92.7348 251.32 92.5588 252.6Z" fill="#001931"/>
<path d="M208.993 179.271C218.961 152.608 236.713 129.557 259.944 113.108C283.176 96.6597 310.814 87.5726 339.274 87.0262L342 229L208.993 179.271Z" fill="#FFFBF5"/>
<path d="M339.522 87.0216C373.327 86.4316 406.234 97.9231 432.323 119.429C458.412 140.936 475.972 171.045 481.843 204.342C487.714 237.639 481.512 271.938 464.351 301.07C447.191 330.203 420.199 352.256 388.231 363.264L342 229L339.522 87.0216Z" fill="#001931"/>
<path d="M388.231 363.264C362.753 372.036 335.304 373.379 309.092 367.134C282.879 360.889 258.985 347.315 240.199 327.997C221.413 308.68 208.511 284.415 203.001 258.038C197.49 231.662 199.599 204.262 209.08 179.039L342 229L388.231 363.264Z" fill="#99ABB4"/>
<path d="M281.72 161V152.04H279.64V151.32C280.6 151.272 281.192 150.904 281.56 150.536C281.768 150.328 281.928 150.072 282.04 149.8H282.92V161H281.72ZM287.794 161L290.434 156.84C290.338 156.872 290.226 156.904 290.114 156.92C289.874 156.968 289.586 157 289.234 157C287.058 157 285.474 155.416 285.474 153.32C285.474 151.224 287.074 149.64 289.314 149.64C291.554 149.64 293.154 151.224 293.154 153.32C293.154 154.008 292.946 154.6 292.754 155.032C292.642 155.288 292.498 155.512 292.354 155.72L288.994 161H287.794ZM286.674 153.32C286.674 154.856 287.714 155.88 289.314 155.88C290.914 155.88 291.954 154.856 291.954 153.32C291.954 151.784 290.914 150.76 289.314 150.76C287.714 150.76 286.674 151.784 286.674 153.32ZM294.671 152.12C294.671 150.776 295.807 149.64 297.151 149.64C298.495 149.64 299.631 150.776 299.631 152.12C299.631 153.464 298.495 154.6 297.151 154.6C295.807 154.6 294.671 153.464 294.671 152.12ZM296.031 161L303.071 149.8H304.191L297.151 161H296.031ZM297.151 153.64C297.967 153.64 298.591 153.016 298.591 152.12C298.591 151.224 297.967 150.6 297.151 150.6C296.335 150.6 295.711 151.224 295.711 152.12C295.711 153.016 296.335 153.64 297.151 153.64ZM300.591 158.68C300.591 157.336 301.727 156.2 303.071 156.2C304.415 156.2 305.551 157.336 305.551 158.68C305.551 160.024 304.415 161.16 303.071 161.16C301.727 161.16 300.591 160.024 300.591 158.68ZM303.071 160.2C303.887 160.2 304.511 159.576 304.511 158.68C304.511 157.784 303.887 157.16 303.071 157.16C302.255 157.16 301.631 157.784 301.631 158.68C301.631 159.576 302.255 160.2 303.071 160.2Z" fill="#001931"/>
<path d="M400.48 232.6V231.24L405.84 223.8H407.36V231.48H408.8V232.6H407.36V235H406.16V232.6H400.48ZM401.6 231.48H406.16V225.16L401.6 231.48ZM410.559 233.48L411.359 232.68C411.567 232.952 411.807 233.176 412.079 233.368C412.575 233.704 413.279 234.04 414.239 234.04C415.839 234.04 416.879 233.016 416.879 231.48C416.879 229.944 415.855 228.92 414.319 228.92C413.471 228.92 412.847 229.224 412.447 229.528C412.207 229.704 411.999 229.912 411.839 230.12H410.959L411.359 223.8H417.359V224.92H412.399L412.159 228.44C412.335 228.328 412.527 228.216 412.735 228.12C413.103 227.944 413.631 227.8 414.319 227.8C416.495 227.8 418.079 229.384 418.079 231.48C418.079 233.64 416.559 235.16 414.239 235.16C412.975 235.16 412.095 234.76 411.471 234.328C411.119 234.088 410.815 233.8 410.559 233.48ZM419.687 226.12C419.687 224.776 420.823 223.64 422.167 223.64C423.511 223.64 424.647 224.776 424.647 226.12C424.647 227.464 423.511 228.6 422.167 228.6C420.823 228.6 419.687 227.464 419.687 226.12ZM421.047 235L428.087 223.8H429.207L422.167 235H421.047ZM422.167 227.64C422.983 227.64 423.607 227.016 423.607 226.12C423.607 225.224 422.983 224.6 422.167 224.6C421.351 224.6 420.727 225.224 420.727 226.12C420.727 227.016 421.351 227.64 422.167 227.64ZM425.607 232.68C425.607 231.336 426.743 230.2 428.087 230.2C429.431 230.2 430.567 231.336 430.567 232.68C430.567 234.024 429.431 235.16 428.087 235.16C426.743 235.16 425.607 234.024 425.607 232.68ZM428.087 234.2C428.903 234.2 429.527 233.576 429.527 232.68C429.527 231.784 428.903 231.16 428.087 231.16C427.271 231.16 426.647 231.784 426.647 232.68C426.647 233.576 427.271 234.2 428.087 234.2Z" fill="white"/>
<path d="M277.48 285.48L278.28 284.68C278.488 284.952 278.728 285.176 279.016 285.368C279.512 285.704 280.216 286.04 281.24 286.04C282.92 286.04 283.88 285.08 283.88 283.88C283.88 282.744 282.856 281.72 281.24 281.72H280.12V280.6H281.24C282.6 280.6 283.4 279.816 283.4 278.6C283.4 277.56 282.6 276.76 281.24 276.76C280.392 276.76 279.768 277.08 279.336 277.4C279.08 277.592 278.856 277.8 278.68 278.04L277.88 277.16C278.104 276.888 278.376 276.632 278.712 276.408C279.272 276.024 280.104 275.64 281.24 275.64C283.24 275.64 284.6 277 284.6 278.6C284.6 279.56 284.184 280.184 283.752 280.568C283.512 280.792 283.224 280.968 282.92 281.08C283.304 281.192 283.656 281.368 283.96 281.608C284.472 282.04 285 282.728 285 283.88C285 285.544 283.544 287.16 281.24 287.16C279.96 287.16 279.016 286.76 278.392 286.328C278.024 286.088 277.72 285.8 277.48 285.48ZM287.633 281.08L290.993 275.8H292.193L289.553 279.96L289.873 279.88C290.081 279.832 290.385 279.8 290.753 279.8C292.929 279.8 294.513 281.384 294.513 283.48C294.513 285.576 292.913 287.16 290.673 287.16C288.433 287.16 286.833 285.576 286.833 283.48C286.833 282.792 287.025 282.2 287.233 281.768C287.345 281.512 287.489 281.288 287.633 281.08ZM288.033 283.48C288.033 285.016 289.073 286.04 290.673 286.04C292.273 286.04 293.313 285.016 293.313 283.48C293.313 281.944 292.273 280.92 290.673 280.92C289.073 280.92 288.033 281.944 288.033 283.48ZM296.031 278.12C296.031 276.776 297.167 275.64 298.511 275.64C299.855 275.64 300.991 276.776 300.991 278.12C300.991 279.464 299.855 280.6 298.511 280.6C297.167 280.6 296.031 279.464 296.031 278.12ZM297.391 287L304.431 275.8H305.551L298.511 287H297.391ZM298.511 279.64C299.327 279.64 299.951 279.016 299.951 278.12C299.951 277.224 299.327 276.6 298.511 276.6C297.695 276.6 297.071 277.224 297.071 278.12C297.071 279.016 297.695 279.64 298.511 279.64ZM301.951 284.68C301.951 283.336 303.087 282.2 304.431 282.2C305.775 282.2 306.911 283.336 306.911 284.68C306.911 286.024 305.775 287.16 304.431 287.16C303.087 287.16 301.951 286.024 301.951 284.68ZM304.431 286.2C305.247 286.2 305.871 285.576 305.871 284.68C305.871 283.784 305.247 283.16 304.431 283.16C303.615 283.16 302.991 283.784 302.991 284.68C302.991 285.576 303.615 286.2 304.431 286.2Z" fill="white"/>
<path d="M25.68 289V277.8H30.16C32.16 277.8 33.6 279.24 33.6 281.16C33.6 282.44 33.008 283.224 32.432 283.72C32.096 283.992 31.712 284.216 31.28 284.36L33.92 289H32.56L30.08 284.52H26.88V289H25.68ZM26.88 283.4H30.16C31.52 283.4 32.4 282.52 32.4 281.16C32.4 279.8 31.52 278.92 30.16 278.92H26.88V283.4ZM41.6806 286.84L42.4006 287.56C42.1766 287.864 41.9046 288.12 41.5846 288.36C41.0246 288.76 40.2406 289.16 39.2006 289.16C37.1046 289.16 35.3606 287.4 35.3606 285.16C35.3606 282.92 37.1206 281.16 39.1206 281.16C41.2166 281.16 42.8006 282.76 42.8006 285C42.8006 285.176 42.7686 285.304 42.7526 285.416L42.7206 285.576L36.4806 285.56C36.5606 286.92 37.7446 288.12 39.2006 288.12C40.0166 288.12 40.6086 287.8 41.0406 287.48C41.2806 287.288 41.5046 287.08 41.6806 286.84ZM36.4806 284.6H41.6806C41.5046 283.24 40.4806 282.2 39.1206 282.2C37.7446 282.2 36.6566 283.32 36.4806 284.6ZM45.4356 286.92V282.36H43.9956V281.32H44.8756C45.3076 281.32 45.5156 281.048 45.5156 280.52V278.76H46.5556V281.32H48.2356V282.36H46.5556V286.92C46.5556 287.736 46.9556 288.12 47.5956 288.12C47.8676 288.12 48.1396 288.072 48.3316 288.008C48.4436 287.96 48.5556 287.928 48.6356 287.88V288.92C48.5396 288.968 48.4276 289 48.3156 289.048C48.1236 289.112 47.8516 289.16 47.5476 289.16C46.2196 289.16 45.4356 288.376 45.4356 286.92ZM55.045 289V287.96C54.885 288.184 54.677 288.392 54.437 288.568C54.005 288.872 53.397 289.16 52.565 289.16C50.965 289.16 49.845 288.04 49.845 286.92C49.845 285.64 50.629 284.84 52.085 284.6L55.045 284.12C55.045 282.984 54.261 282.2 53.125 282.2C52.437 282.2 51.909 282.488 51.541 282.76C51.333 282.936 51.141 283.112 50.965 283.32L50.245 282.6C50.453 282.328 50.709 282.088 50.997 281.88C51.493 281.512 52.181 281.16 53.125 281.16C54.885 281.16 56.165 282.44 56.165 284.12V289H55.045ZM55.045 285.56V285.08L52.405 285.56C51.445 285.736 50.965 286.2 50.965 286.92C50.965 287.56 51.525 288.12 52.565 288.12C54.021 288.12 55.045 287.096 55.045 285.56ZM58.5575 278.76C58.5575 278.36 58.8775 278.04 59.2775 278.04C59.6775 278.04 59.9975 278.36 59.9975 278.76C59.9975 279.16 59.6775 279.48 59.2775 279.48C58.8775 279.48 58.5575 279.16 58.5575 278.76ZM58.7175 289V281.32H59.8375V289H58.7175ZM62.485 289V277.8H63.605V289H62.485Z" fill="#001931"/>
<path d="M24.96 315.4C24.96 312.2 27.52 309.64 30.72 309.64C33.92 309.64 36.48 312.2 36.48 315.4C36.48 318.6 33.92 321.16 30.72 321.16C27.52 321.16 24.96 318.6 24.96 315.4ZM30.72 320.04C33.28 320.04 35.28 318.04 35.28 315.4C35.28 312.76 33.28 310.76 30.72 310.76C28.16 310.76 26.16 312.76 26.16 315.4C26.16 318.04 28.16 320.04 30.72 320.04ZM38.7175 321V313.32H39.8375V314.44C39.9975 314.2 40.2055 313.992 40.4455 313.8C40.8775 313.48 41.4695 313.16 42.3175 313.16C44.1575 313.16 45.4375 314.44 45.4375 316.44V321H44.3175V316.44C44.3175 315.08 43.4535 314.2 42.2375 314.2C40.8775 314.2 39.8375 315.224 39.8375 316.76V321H38.7175ZM48.0788 321V309.8H49.1988V321H48.0788ZM51.6825 310.76C51.6825 310.36 52.0025 310.04 52.4025 310.04C52.8025 310.04 53.1225 310.36 53.1225 310.76C53.1225 311.16 52.8025 311.48 52.4025 311.48C52.0025 311.48 51.6825 311.16 51.6825 310.76ZM51.8425 321V313.32H52.9625V321H51.8425ZM55.53 321V313.32H56.65V314.44C56.81 314.2 57.018 313.992 57.258 313.8C57.69 313.48 58.282 313.16 59.13 313.16C60.97 313.16 62.25 314.44 62.25 316.44V321H61.13V316.44C61.13 315.08 60.266 314.2 59.05 314.2C57.69 314.2 56.65 315.224 56.65 316.76V321H55.53ZM70.5713 318.84L71.2913 319.56C71.0673 319.864 70.7953 320.12 70.4753 320.36C69.9153 320.76 69.1313 321.16 68.0913 321.16C65.9953 321.16 64.2513 319.4 64.2513 317.16C64.2513 314.92 66.0113 313.16 68.0113 313.16C70.1073 313.16 71.6913 314.76 71.6913 317C71.6913 317.176 71.6593 317.304 71.6433 317.416L71.6112 317.576L65.3713 317.56C65.4513 318.92 66.6353 320.12 68.0913 320.12C68.9073 320.12 69.4993 319.8 69.9313 319.48C70.1713 319.288 70.3953 319.08 70.5713 318.84ZM65.3713 316.6H70.5713C70.3953 315.24 69.3713 314.2 68.0113 314.2C66.6353 314.2 65.5473 315.32 65.3713 316.6ZM76.9656 314.28L78.3256 312.6L76.3256 312.12L76.6456 311.24L78.5656 311.88L78.4056 309.8H79.3656L79.2056 311.88L81.1256 311.24L81.4456 312.12L79.4456 312.6L80.8056 314.28L80.0856 314.84L78.8856 313.08L77.6856 314.84L76.9656 314.28Z" fill="#001931"/>
</svg>
