<svg width="584" height="364" viewBox="0 0 584 364" fill="none" xmlns="http://www.w3.org/2000/svg">
<path d="M206.446 84.523C210.766 83.4059 215.136 82.4929 219.542 81.7872L242 222L206.446 84.523Z" fill="#B3C0C7"/>
<path d="M219.052 81.8665C232.282 79.7001 245.751 79.418 259.059 81.0285L242 222L219.052 81.8665Z" fill="#CCD5D9"/>
<path d="M259.305 81.0585C278.56 83.4226 297.125 89.7067 313.857 99.5231C330.588 109.339 345.131 122.48 356.588 138.134C368.045 153.788 376.173 171.623 380.471 190.54C384.769 209.457 385.145 229.053 381.577 248.121L242 222L259.305 81.0585Z" fill="#001931"/>
<path d="M381.622 247.877C380.945 251.533 380.124 255.161 379.161 258.752L242 222L381.622 247.877Z" fill="#FFFBF5"/>
<path d="M379.477 257.554C373.204 281.808 360.627 303.971 343.021 321.794C325.415 339.616 303.407 352.464 279.231 359.032C255.055 365.601 229.572 365.656 205.367 359.193C181.163 352.731 159.099 339.979 141.416 322.234C123.732 304.488 111.058 282.38 104.679 258.153C98.3011 233.927 98.4457 208.444 105.098 184.291C111.751 160.138 124.675 138.175 142.559 120.632C160.443 103.088 182.65 90.5877 206.926 84.3998L242 222L379.477 257.554Z" fill="#99ABB4"/>
<path d="M67.8425 334L72.8025 323.92H67.0425V322.8H74.0825V323.92L69.1225 334H67.8425ZM74.0831 333.36C74.0831 332.864 74.3871 332.56 74.8831 332.56C75.3791 332.56 75.6831 332.864 75.6831 333.36C75.6831 333.856 75.3791 334.16 74.8831 334.16C74.3871 334.16 74.0831 333.856 74.0831 333.36ZM78.6419 334V325.04H76.5619V324.32C77.5219 324.272 78.1139 323.904 78.4819 323.536C78.6899 323.328 78.8499 323.072 78.9619 322.8H79.8419V334H78.6419ZM84.7156 334L87.3556 329.84C87.2596 329.872 87.1476 329.904 87.0356 329.92C86.7956 329.968 86.5076 330 86.1556 330C83.9796 330 82.3956 328.416 82.3956 326.32C82.3956 324.224 83.9956 322.64 86.2356 322.64C88.4756 322.64 90.0756 324.224 90.0756 326.32C90.0756 327.008 89.8676 327.6 89.6756 328.032C89.5636 328.288 89.4196 328.512 89.2756 328.72L85.9156 334H84.7156ZM83.5956 326.32C83.5956 327.856 84.6356 328.88 86.2356 328.88C87.8356 328.88 88.8756 327.856 88.8756 326.32C88.8756 324.784 87.8356 323.76 86.2356 323.76C84.6356 323.76 83.5956 324.784 83.5956 326.32ZM91.1206 331.6V330.24L96.4806 322.8H98.0006V330.48H99.4406V331.6H98.0006V334H96.8006V331.6H91.1206ZM92.2406 330.48H96.8006V324.16L92.2406 330.48ZM18.4144 358V346.8H19.4544L24.0944 352.88L28.7344 346.8H29.7744V358H28.5744V348.88L24.0944 354.8L19.6144 348.88V358H18.4144ZM32.7331 354.8V350.32H33.8531V354.8C33.8531 356.16 34.8131 357.12 36.0131 357.12C37.2931 357.12 38.3331 356.096 38.3331 354.56V350.32H39.4531V358H38.3331V356.96C38.1731 357.184 37.9651 357.392 37.7251 357.568C37.2931 357.872 36.6851 358.16 35.8531 358.16C34.0931 358.16 32.7331 356.8 32.7331 354.8ZM42.1725 358V346.8H43.2925V358H42.1725ZM46.5763 355.92V351.36H45.1363V350.32H46.0163C46.4483 350.32 46.6562 350.048 46.6562 349.52V347.76H47.6963V350.32H49.3763V351.36H47.6963V355.92C47.6963 356.736 48.0963 357.12 48.7363 357.12C49.0083 357.12 49.2803 357.072 49.4723 357.008C49.5843 356.96 49.6963 356.928 49.7763 356.88V357.92C49.6803 357.968 49.5683 358 49.4563 358.048C49.2643 358.112 48.9923 358.16 48.6883 358.16C47.3603 358.16 46.5763 357.376 46.5763 355.92ZM51.5419 347.76C51.5419 347.36 51.8619 347.04 52.2619 347.04C52.6619 347.04 52.9819 347.36 52.9819 347.76C52.9819 348.16 52.6619 348.48 52.2619 348.48C51.8619 348.48 51.5419 348.16 51.5419 347.76ZM51.7019 358V350.32H52.8219V358H51.7019ZM54.8294 353.76V352.72H59.7094V353.76H54.8294ZM62.1019 358V346.8H63.3019V356.88H69.0619V358H62.1019ZM75.295 358V356.96C75.135 357.184 74.927 357.392 74.687 357.568C74.255 357.872 73.647 358.16 72.815 358.16C71.215 358.16 70.095 357.04 70.095 355.92C70.095 354.64 70.879 353.84 72.335 353.6L75.295 353.12C75.295 351.984 74.511 351.2 73.375 351.2C72.687 351.2 72.159 351.488 71.791 351.76C71.583 351.936 71.391 352.112 71.215 352.32L70.495 351.6C70.703 351.328 70.959 351.088 71.247 350.88C71.743 350.512 72.431 350.16 73.375 350.16C75.135 350.16 76.415 351.44 76.415 353.12V358H75.295ZM75.295 354.56V354.08L72.655 354.56C71.695 354.736 71.215 355.2 71.215 355.92C71.215 356.56 71.775 357.12 72.815 357.12C74.271 357.12 75.295 356.096 75.295 354.56ZM79.0475 358V346.8H80.1675V351.44C80.3435 351.2 80.5515 350.992 80.8235 350.8C81.2555 350.48 81.9115 350.16 82.8075 350.16C84.8875 350.16 86.5675 351.84 86.5675 354.16C86.5675 356.48 84.8875 358.16 82.8075 358.16C81.9115 358.16 81.2555 357.84 80.8235 357.52C80.5515 357.328 80.3435 357.12 80.1675 356.88V358H79.0475ZM82.8075 357.12C84.2635 357.12 85.4475 355.904 85.4475 354.16C85.4475 352.416 84.2635 351.2 82.8075 351.2C81.4635 351.2 80.1675 352.48 80.1675 354.16C80.1675 355.84 81.4635 357.12 82.8075 357.12ZM94.3213 355.84L95.0413 356.56C94.8173 356.864 94.5453 357.12 94.2253 357.36C93.6653 357.76 92.8813 358.16 91.8413 358.16C89.7453 358.16 88.0013 356.4 88.0013 354.16C88.0013 351.92 89.7613 350.16 91.7613 350.16C93.8573 350.16 95.4413 351.76 95.4413 354C95.4413 354.176 95.4093 354.304 95.3933 354.416L95.3612 354.576L89.1213 354.56C89.2013 355.92 90.3853 357.12 91.8413 357.12C92.6573 357.12 93.2493 356.8 93.6813 356.48C93.9213 356.288 94.1453 356.08 94.3213 355.84ZM89.1213 353.6H94.3213C94.1453 352.24 93.1213 351.2 91.7613 351.2C90.3853 351.2 89.2973 352.32 89.1213 353.6ZM97.5163 358V346.8H98.6363V358H97.5163Z" fill="black"/>
<path d="M188.251 42V33.04H186.171V32.32C187.131 32.272 187.723 31.904 188.091 31.536C188.299 31.328 188.459 31.072 188.571 30.8H189.451V42H188.251ZM192.805 36.08L196.165 30.8H197.365L194.725 34.96L195.045 34.88C195.253 34.832 195.557 34.8 195.925 34.8C198.101 34.8 199.685 36.384 199.685 38.48C199.685 40.576 198.085 42.16 195.845 42.16C193.605 42.16 192.005 40.576 192.005 38.48C192.005 37.792 192.197 37.2 192.405 36.768C192.517 36.512 192.661 36.288 192.805 36.08ZM193.205 38.48C193.205 40.016 194.245 41.04 195.845 41.04C197.445 41.04 198.485 40.016 198.485 38.48C198.485 36.944 197.445 35.92 195.845 35.92C194.245 35.92 193.205 36.944 193.205 38.48ZM201.523 38.72C201.523 37.68 201.987 36.992 202.483 36.544C202.755 36.288 203.075 36.08 203.443 35.92C203.171 35.776 202.931 35.6 202.723 35.392C202.355 35.024 202.003 34.448 202.003 33.6C202.003 32.08 203.443 30.64 205.283 30.64C207.123 30.64 208.562 32.08 208.562 33.6C208.562 34.448 208.211 35.024 207.843 35.392C207.635 35.6 207.395 35.776 207.123 35.92C207.491 36.08 207.811 36.288 208.083 36.544C208.579 36.992 209.043 37.68 209.043 38.72C209.043 40.56 207.459 42.16 205.283 42.16C203.107 42.16 201.523 40.56 201.523 38.72ZM203.203 33.6C203.203 34.64 204.003 35.44 205.283 35.44C206.563 35.44 207.363 34.64 207.363 33.6C207.363 32.56 206.563 31.76 205.283 31.76C204.003 31.76 203.203 32.56 203.203 33.6ZM202.723 38.72C202.723 39.92 203.683 41.04 205.283 41.04C206.883 41.04 207.843 39.92 207.843 38.72C207.843 37.52 206.723 36.4 205.283 36.4C203.843 36.4 202.723 37.52 202.723 38.72ZM142.336 66V54.8H149.936V55.92H143.536V59.76H148.656V60.88H143.536V66H142.336ZM151.139 66V58.32H152.259V59.36C152.435 59.152 152.643 58.944 152.883 58.768C153.315 58.464 153.923 58.16 154.819 58.16H155.139V59.28H154.659C153.379 59.28 152.259 60.24 152.259 61.76V66H151.139ZM161.295 66V64.96C161.135 65.184 160.927 65.392 160.687 65.568C160.255 65.872 159.647 66.16 158.815 66.16C157.215 66.16 156.095 65.04 156.095 63.92C156.095 62.64 156.879 61.84 158.335 61.6L161.295 61.12C161.295 59.984 160.511 59.2 159.375 59.2C158.687 59.2 158.159 59.488 157.791 59.76C157.583 59.936 157.391 60.112 157.215 60.32L156.495 59.6C156.703 59.328 156.959 59.088 157.247 58.88C157.743 58.512 158.431 58.16 159.375 58.16C161.135 58.16 162.415 59.44 162.415 61.12V66H161.295ZM161.295 62.56V62.08L158.655 62.56C157.695 62.736 157.215 63.2 157.215 63.92C157.215 64.56 157.775 65.12 158.815 65.12C160.271 65.12 161.295 64.096 161.295 62.56ZM164.968 66V58.32H166.088V59.44C166.248 59.2 166.456 58.992 166.696 58.8C167.128 58.48 167.72 58.16 168.568 58.16C170.408 58.16 171.688 59.44 171.688 61.44V66H170.568V61.44C170.568 60.08 169.704 59.2 168.488 59.2C167.128 59.2 166.088 60.224 166.088 61.76V66H164.968ZM179.929 63.84L180.729 64.56C180.489 64.864 180.201 65.12 179.881 65.36C179.321 65.76 178.537 66.16 177.529 66.16C175.433 66.16 173.689 64.4 173.689 62.16C173.689 59.92 175.433 58.16 177.529 58.16C178.537 58.16 179.305 58.544 179.833 58.928C180.137 59.152 180.409 59.408 180.649 59.68L179.849 60.48C179.673 60.24 179.481 60.032 179.257 59.84C178.873 59.52 178.281 59.2 177.529 59.2C176.089 59.2 174.809 60.48 174.809 62.16C174.809 63.84 176.089 65.12 177.529 65.12C178.281 65.12 178.873 64.8 179.305 64.48C179.545 64.288 179.753 64.08 179.929 63.84ZM182.563 66V54.8H183.683V59.44C183.843 59.2 184.051 58.992 184.291 58.8C184.723 58.48 185.315 58.16 186.163 58.16C188.003 58.16 189.283 59.44 189.283 61.44V66H188.163V61.44C188.163 60.08 187.299 59.2 186.083 59.2C184.723 59.2 183.683 60.224 183.683 61.76V66H182.563ZM191.683 55.76C191.683 55.36 192.003 55.04 192.403 55.04C192.803 55.04 193.123 55.36 193.123 55.76C193.123 56.16 192.803 56.48 192.403 56.48C192.003 56.48 191.683 56.16 191.683 55.76ZM191.843 66V58.32H192.963V66H191.843ZM194.81 64.8L195.61 64C195.754 64.208 195.93 64.4 196.122 64.56C196.458 64.864 196.97 65.12 197.61 65.12C198.746 65.12 199.29 64.56 199.29 63.84C199.29 62.08 195.13 62.96 195.13 60.32C195.13 59.216 196.154 58.16 197.69 58.16C198.506 58.16 199.098 58.432 199.53 58.688C199.77 58.832 199.994 59.008 200.17 59.2L199.37 60C199.258 59.856 199.114 59.712 198.954 59.6C198.65 59.408 198.25 59.2 197.69 59.2C196.81 59.2 196.25 59.76 196.25 60.32C196.25 62 200.41 61.12 200.41 63.84C200.41 65.12 199.354 66.16 197.61 66.16C196.65 66.16 195.946 65.824 195.482 65.488C195.21 65.296 194.986 65.072 194.81 64.8ZM208.165 63.84L208.885 64.56C208.661 64.864 208.389 65.12 208.069 65.36C207.509 65.76 206.725 66.16 205.685 66.16C203.589 66.16 201.845 64.4 201.845 62.16C201.845 59.92 203.605 58.16 205.605 58.16C207.701 58.16 209.285 59.76 209.285 62C209.285 62.176 209.253 62.304 209.237 62.416L209.205 62.576L202.965 62.56C203.045 63.92 204.229 65.12 205.685 65.12C206.501 65.12 207.093 64.8 207.525 64.48C207.765 64.288 207.989 64.08 208.165 63.84ZM202.965 61.6H208.165C207.989 60.24 206.965 59.2 205.605 59.2C204.229 59.2 203.141 60.32 202.965 61.6Z" fill="black"/>
<path d="M241.48 40.48L242.28 39.68C242.488 39.952 242.728 40.176 243.016 40.368C243.512 40.704 244.216 41.04 245.24 41.04C246.92 41.04 247.88 40.08 247.88 38.88C247.88 37.744 246.856 36.72 245.24 36.72H244.12V35.6H245.24C246.6 35.6 247.4 34.816 247.4 33.6C247.4 32.56 246.6 31.76 245.24 31.76C244.392 31.76 243.768 32.08 243.336 32.4C243.08 32.592 242.856 32.8 242.68 33.04L241.88 32.16C242.104 31.888 242.376 31.632 242.712 31.408C243.272 31.024 244.104 30.64 245.24 30.64C247.24 30.64 248.6 32 248.6 33.6C248.6 34.56 248.184 35.184 247.752 35.568C247.512 35.792 247.224 35.968 246.92 36.08C247.304 36.192 247.656 36.368 247.96 36.608C248.472 37.04 249 37.728 249 38.88C249 40.544 247.544 42.16 245.24 42.16C243.96 42.16 243.016 41.76 242.392 41.328C242.024 41.088 241.72 40.8 241.48 40.48ZM250.433 39.6V38.24L255.793 30.8H257.313V38.48H258.753V39.6H257.313V42H256.113V39.6H250.433ZM251.553 38.48H256.113V32.16L251.553 38.48ZM260.513 40.48L261.312 39.68C261.521 39.952 261.761 40.176 262.033 40.368C262.529 40.704 263.233 41.04 264.193 41.04C265.793 41.04 266.833 40.016 266.833 38.48C266.833 36.944 265.809 35.92 264.273 35.92C263.424 35.92 262.801 36.224 262.401 36.528C262.161 36.704 261.953 36.912 261.793 37.12H260.913L261.312 30.8H267.312V31.92H262.353L262.113 35.44C262.289 35.328 262.481 35.216 262.689 35.12C263.057 34.944 263.585 34.8 264.273 34.8C266.449 34.8 268.033 36.384 268.033 38.48C268.033 40.64 266.513 42.16 264.193 42.16C262.929 42.16 262.049 41.76 261.424 41.328C261.073 41.088 260.769 40.8 260.513 40.48ZM242.68 66V54.8H247.16C249.16 54.8 250.6 56.24 250.6 58.16C250.6 59.44 250.008 60.224 249.432 60.72C249.096 60.992 248.712 61.216 248.28 61.36L250.92 66H249.56L247.08 61.52H243.88V66H242.68ZM243.88 60.4H247.16C248.52 60.4 249.4 59.52 249.4 58.16C249.4 56.8 248.52 55.92 247.16 55.92H243.88V60.4ZM258.681 63.84L259.401 64.56C259.177 64.864 258.905 65.12 258.585 65.36C258.025 65.76 257.241 66.16 256.201 66.16C254.105 66.16 252.361 64.4 252.361 62.16C252.361 59.92 254.121 58.16 256.121 58.16C258.217 58.16 259.801 59.76 259.801 62C259.801 62.176 259.769 62.304 259.753 62.416L259.721 62.576L253.481 62.56C253.561 63.92 254.745 65.12 256.201 65.12C257.017 65.12 257.609 64.8 258.041 64.48C258.281 64.288 258.505 64.08 258.681 63.84ZM253.481 61.6H258.681C258.505 60.24 257.481 59.2 256.121 59.2C254.745 59.2 253.657 60.32 253.481 61.6ZM262.436 63.92V59.36H260.996V58.32H261.876C262.308 58.32 262.516 58.048 262.516 57.52V55.76H263.556V58.32H265.236V59.36H263.556V63.92C263.556 64.736 263.956 65.12 264.596 65.12C264.868 65.12 265.14 65.072 265.332 65.008C265.444 64.96 265.556 64.928 265.636 64.88V65.92C265.54 65.968 265.428 66 265.316 66.048C265.124 66.112 264.852 66.16 264.548 66.16C263.22 66.16 262.436 65.376 262.436 63.92ZM272.045 66V64.96C271.885 65.184 271.677 65.392 271.437 65.568C271.005 65.872 270.397 66.16 269.565 66.16C267.965 66.16 266.845 65.04 266.845 63.92C266.845 62.64 267.629 61.84 269.085 61.6L272.045 61.12C272.045 59.984 271.261 59.2 270.125 59.2C269.437 59.2 268.909 59.488 268.541 59.76C268.333 59.936 268.141 60.112 267.965 60.32L267.245 59.6C267.453 59.328 267.709 59.088 267.997 58.88C268.493 58.512 269.181 58.16 270.125 58.16C271.885 58.16 273.165 59.44 273.165 61.12V66H272.045ZM272.045 62.56V62.08L269.405 62.56C268.445 62.736 267.965 63.2 267.965 63.92C267.965 64.56 268.525 65.12 269.565 65.12C271.021 65.12 272.045 64.096 272.045 62.56ZM275.558 55.76C275.558 55.36 275.878 55.04 276.278 55.04C276.678 55.04 276.998 55.36 276.998 55.76C276.998 56.16 276.678 56.48 276.278 56.48C275.878 56.48 275.558 56.16 275.558 55.76ZM275.718 66V58.32H276.838V66H275.718ZM279.485 66V54.8H280.605V66H279.485Z" fill="black"/>
<path d="M410 134.88H415.84V136H408.64C408.64 131.28 414.64 131.136 414.64 127.92C414.64 126.64 413.776 125.76 412.24 125.76C411.216 125.76 410.656 126.224 410.288 126.72C410.08 126.992 409.936 127.312 409.84 127.68L408.8 127.2C408.944 126.72 409.152 126.288 409.44 125.92C409.952 125.28 410.784 124.64 412.24 124.64C414.416 124.64 415.84 126.08 415.84 127.92C415.84 131.36 410.96 131.92 410 134.88ZM417.677 135.36C417.677 134.864 417.981 134.56 418.477 134.56C418.973 134.56 419.277 134.864 419.277 135.36C419.277 135.856 418.973 136.16 418.477 136.16C417.981 136.16 417.677 135.856 417.677 135.36ZM420.636 133.6V132.24L425.996 124.8H427.516V132.48H428.956V133.6H427.516V136H426.316V133.6H420.636ZM421.756 132.48H426.316V126.16L421.756 132.48ZM430.483 136L435.443 125.92H429.683V124.8H436.723V125.92L431.763 136H430.483ZM442.269 136.16C439.933 136.16 437.773 134 437.773 130.4C437.773 126.8 439.949 124.64 442.253 124.64C444.557 124.64 446.733 126.8 446.733 130.4C446.733 134 444.573 136.16 442.269 136.16ZM442.269 135.04C443.917 135.04 445.533 133.44 445.533 130.4C445.533 127.36 443.917 125.76 442.253 125.76C440.589 125.76 438.973 127.36 438.973 130.4C438.973 133.44 440.573 135.04 442.269 135.04ZM408.72 158.48L409.44 157.664C409.648 157.936 409.888 158.16 410.176 158.352C410.672 158.72 411.44 159.04 412.48 159.04C414.16 159.04 415.04 158.176 415.04 156.96C415.04 154.096 408.96 155.664 408.96 151.68C408.96 150.064 410.336 148.64 412.56 148.64C413.648 148.64 414.448 148.992 415.008 149.36C415.328 149.568 415.6 149.808 415.84 150.08L415.04 150.88C414.864 150.672 414.656 150.496 414.416 150.32C413.984 150.048 413.392 149.76 412.56 149.76C411.024 149.76 410.16 150.672 410.16 151.68C410.16 154.56 416.24 152.976 416.24 156.96C416.24 158.8 414.88 160.16 412.48 160.16C411.2 160.16 410.256 159.76 409.632 159.328C409.264 159.088 408.96 158.8 408.72 158.48ZM418.407 160V148.8H419.527V153.44C419.687 153.2 419.895 152.992 420.135 152.8C420.567 152.48 421.159 152.16 422.007 152.16C423.847 152.16 425.127 153.44 425.127 155.44V160H424.007V155.44C424.007 154.08 423.143 153.2 421.927 153.2C420.567 153.2 419.527 154.224 419.527 155.76V160H418.407ZM431.046 160.16C428.886 160.16 427.126 158.4 427.126 156.16C427.126 153.92 428.886 152.16 431.046 152.16C433.206 152.16 434.966 153.92 434.966 156.16C434.966 158.4 433.206 160.16 431.046 160.16ZM431.046 159.12C432.566 159.12 433.846 157.84 433.846 156.16C433.846 154.48 432.566 153.2 431.046 153.2C429.526 153.2 428.246 154.48 428.246 156.16C428.246 157.824 429.526 159.12 431.046 159.12ZM436.968 163.36V152.32H438.088V153.44C438.264 153.2 438.472 152.992 438.744 152.8C439.176 152.48 439.832 152.16 440.728 152.16C442.808 152.16 444.488 153.84 444.488 156.16C444.488 158.48 442.808 160.16 440.728 160.16C439.832 160.16 439.176 159.84 438.744 159.52C438.472 159.328 438.264 159.12 438.088 158.88V163.36H436.968ZM440.728 159.12C442.184 159.12 443.368 157.904 443.368 156.16C443.368 154.416 442.184 153.2 440.728 153.2C439.384 153.2 438.088 154.48 438.088 156.16C438.088 157.84 439.384 159.12 440.728 159.12ZM445.923 155.76V154.72H450.803V155.76H445.923ZM452.636 149.76C452.636 149.36 452.956 149.04 453.356 149.04C453.756 149.04 454.076 149.36 454.076 149.76C454.076 150.16 453.756 150.48 453.356 150.48C452.956 150.48 452.636 150.16 452.636 149.76ZM452.796 160V152.32H453.916V160H452.796ZM456.483 160V152.32H457.603V153.44C457.763 153.2 457.971 152.992 458.211 152.8C458.643 152.48 459.235 152.16 460.083 152.16C461.923 152.16 463.203 153.44 463.203 155.44V160H462.083V155.44C462.083 154.08 461.219 153.2 460.003 153.2C458.643 153.2 457.603 154.224 457.603 155.76V160H456.483ZM465.204 155.76V154.72H470.084V155.76H465.204ZM471.517 158.48L472.237 157.664C472.445 157.936 472.685 158.16 472.973 158.352C473.469 158.72 474.237 159.04 475.277 159.04C476.957 159.04 477.837 158.176 477.837 156.96C477.837 154.096 471.757 155.664 471.757 151.68C471.757 150.064 473.133 148.64 475.357 148.64C476.445 148.64 477.245 148.992 477.805 149.36C478.125 149.568 478.397 149.808 478.637 150.08L477.837 150.88C477.661 150.672 477.453 150.496 477.213 150.32C476.781 150.048 476.189 149.76 475.357 149.76C473.821 149.76 472.957 150.672 472.957 151.68C472.957 154.56 479.037 152.976 479.037 156.96C479.037 158.8 477.677 160.16 475.277 160.16C473.997 160.16 473.053 159.76 472.429 159.328C472.061 159.088 471.757 158.8 471.517 158.48ZM481.204 160V148.8H482.324V153.44C482.484 153.2 482.692 152.992 482.932 152.8C483.364 152.48 483.956 152.16 484.804 152.16C486.644 152.16 487.924 153.44 487.924 155.44V160H486.804V155.44C486.804 154.08 485.94 153.2 484.724 153.2C483.364 153.2 482.324 154.224 482.324 155.76V160H481.204ZM493.843 160.16C491.683 160.16 489.923 158.4 489.923 156.16C489.923 153.92 491.683 152.16 493.843 152.16C496.003 152.16 497.763 153.92 497.763 156.16C497.763 158.4 496.003 160.16 493.843 160.16ZM493.843 159.12C495.363 159.12 496.643 157.84 496.643 156.16C496.643 154.48 495.363 153.2 493.843 153.2C492.323 153.2 491.043 154.48 491.043 156.16C491.043 157.824 492.323 159.12 493.843 159.12ZM499.764 163.36V152.32H500.884V153.44C501.06 153.2 501.268 152.992 501.54 152.8C501.972 152.48 502.628 152.16 503.524 152.16C505.604 152.16 507.284 153.84 507.284 156.16C507.284 158.48 505.604 160.16 503.524 160.16C502.628 160.16 501.972 159.84 501.54 159.52C501.268 159.328 501.06 159.12 500.884 158.88V163.36H499.764ZM503.524 159.12C504.98 159.12 506.164 157.904 506.164 156.16C506.164 154.416 504.98 153.2 503.524 153.2C502.18 153.2 500.884 154.48 500.884 156.16C500.884 157.84 502.18 159.12 503.524 159.12Z" fill="black"/>
<path d="M408.96 252.72C408.96 251.68 409.424 250.992 409.92 250.544C410.192 250.288 410.512 250.08 410.88 249.92C410.608 249.776 410.368 249.6 410.16 249.392C409.792 249.024 409.44 248.448 409.44 247.6C409.44 246.08 410.88 244.64 412.72 244.64C414.56 244.64 416 246.08 416 247.6C416 248.448 415.648 249.024 415.28 249.392C415.072 249.6 414.832 249.776 414.56 249.92C414.928 250.08 415.248 250.288 415.52 250.544C416.016 250.992 416.48 251.68 416.48 252.72C416.48 254.56 414.896 256.16 412.72 256.16C410.544 256.16 408.96 254.56 408.96 252.72ZM410.64 247.6C410.64 248.64 411.44 249.44 412.72 249.44C414 249.44 414.8 248.64 414.8 247.6C414.8 246.56 414 245.76 412.72 245.76C411.44 245.76 410.64 246.56 410.64 247.6ZM410.16 252.72C410.16 253.92 411.12 255.04 412.72 255.04C414.32 255.04 415.28 253.92 415.28 252.72C415.28 251.52 414.16 250.4 412.72 250.4C411.28 250.4 410.16 251.52 410.16 252.72ZM418.405 256L423.365 245.92H417.605V244.8H424.645V245.92L419.685 256H418.405ZM408.96 274.4C408.96 271.2 411.52 268.64 414.72 268.64C417.92 268.64 420.48 271.2 420.48 274.4C420.48 277.6 417.92 280.16 414.72 280.16C411.52 280.16 408.96 277.6 408.96 274.4ZM414.72 279.04C417.28 279.04 419.28 277.04 419.28 274.4C419.28 271.76 417.28 269.76 414.72 269.76C412.16 269.76 410.16 271.76 410.16 274.4C410.16 277.04 412.16 279.04 414.72 279.04ZM422.718 276.8V272.32H423.838V276.8C423.838 278.16 424.798 279.12 425.998 279.12C427.278 279.12 428.318 278.096 428.318 276.56V272.32H429.438V280H428.318V278.96C428.158 279.184 427.95 279.392 427.71 279.568C427.278 279.872 426.67 280.16 425.838 280.16C424.078 280.16 422.718 278.8 422.718 276.8ZM432.717 277.92V273.36H431.277V272.32H432.157C432.589 272.32 432.797 272.048 432.797 271.52V269.76H433.837V272.32H435.517V273.36H433.837V277.92C433.837 278.736 434.237 279.12 434.877 279.12C435.149 279.12 435.421 279.072 435.613 279.008C435.725 278.96 435.837 278.928 435.917 278.88V279.92C435.821 279.968 435.709 280 435.597 280.048C435.405 280.112 435.133 280.16 434.829 280.16C433.501 280.16 432.717 279.376 432.717 277.92ZM437.923 280V268.8H439.043V280H437.923ZM447.446 277.84L448.166 278.56C447.942 278.864 447.67 279.12 447.35 279.36C446.79 279.76 446.006 280.16 444.966 280.16C442.87 280.16 441.126 278.4 441.126 276.16C441.126 273.92 442.886 272.16 444.886 272.16C446.982 272.16 448.566 273.76 448.566 276C448.566 276.176 448.534 276.304 448.518 276.416L448.486 276.576L442.246 276.56C442.326 277.92 443.51 279.12 444.966 279.12C445.782 279.12 446.374 278.8 446.806 278.48C447.046 278.288 447.27 278.08 447.446 277.84ZM442.246 275.6H447.446C447.27 274.24 446.246 273.2 444.886 273.2C443.51 273.2 442.422 274.32 442.246 275.6ZM451.201 277.92V273.36H449.761V272.32H450.641C451.073 272.32 451.281 272.048 451.281 271.52V269.76H452.321V272.32H454.001V273.36H452.321V277.92C452.321 278.736 452.721 279.12 453.361 279.12C453.633 279.12 453.905 279.072 454.097 279.008C454.209 278.96 454.321 278.928 454.401 278.88V279.92C454.305 279.968 454.193 280 454.081 280.048C453.889 280.112 453.617 280.16 453.313 280.16C451.985 280.16 451.201 279.376 451.201 277.92Z" fill="black"/>
<path d="M0.48 16.48L1.68 15.28C1.856 15.52 2.08 15.728 2.352 15.92C2.816 16.24 3.52 16.56 4.48 16.56C5.936 16.56 6.72 15.776 6.72 14.88C6.72 12.4 0.8 13.92 0.8 9.76C0.8 8.08 2.256 6.64 4.64 6.64C5.792 6.64 6.672 6.992 7.264 7.36C7.616 7.568 7.92 7.808 8.16 8.08L6.96 9.28C6.784 9.088 6.592 8.912 6.368 8.768C5.984 8.512 5.392 8.24 4.64 8.24C3.28 8.24 2.56 8.944 2.56 9.76C2.56 12.24 8.48 10.72 8.48 14.88C8.48 16.64 6.96 18.16 4.48 18.16C3.12 18.16 2.112 17.76 1.456 17.328C1.072 17.088 0.752 16.8 0.48 16.48ZM11.045 15.6V11.84H9.605V10.32H10.485C10.981 10.32 11.205 10.08 11.205 9.44V7.76H12.645V10.32H14.405V11.84H12.645V15.44C12.645 16.24 13.013 16.64 13.765 16.64C14.005 16.64 14.213 16.592 14.389 16.528L14.645 16.4V17.92L14.309 18.048C14.101 18.112 13.813 18.16 13.445 18.16C11.909 18.16 11.045 17.28 11.045 15.6ZM15.9213 14.16C15.9213 11.92 17.6813 10.16 19.9213 10.16C22.1613 10.16 23.9213 11.92 23.9213 14.16C23.9213 16.4 22.1613 18.16 19.9213 18.16C17.6813 18.16 15.9213 16.4 15.9213 14.16ZM19.9213 16.64C21.2813 16.64 22.3213 15.616 22.3213 14.16C22.3213 12.704 21.2813 11.68 19.9213 11.68C18.5613 11.68 17.5213 12.704 17.5213 14.16C17.5213 15.616 18.5613 16.64 19.9213 16.64ZM25.6825 18V10.32H27.2825V11.36C27.4585 11.152 27.6505 10.944 27.8745 10.768C28.2585 10.464 28.8345 10.16 29.6025 10.16H30.0025V11.84L29.7945 11.808C29.6665 11.792 29.5385 11.76 29.3625 11.76C28.2585 11.76 27.2825 12.72 27.2825 14.08V18H25.6825ZM37.1319 15.6L38.0919 16.72C37.8839 16.992 37.6119 17.232 37.2919 17.44C36.7319 17.808 35.9479 18.16 34.8119 18.16C32.5719 18.16 30.8119 16.4 30.8119 14.16C30.8119 11.92 32.5719 10.16 34.7319 10.16C36.9079 10.16 38.4919 11.744 38.4919 13.92C38.4919 14.16 38.4599 14.352 38.4439 14.496L38.4119 14.72H32.4919C32.6679 15.76 33.5959 16.64 34.8919 16.64C35.5799 16.64 36.1399 16.384 36.5239 16.128C36.7479 15.984 36.9559 15.808 37.1319 15.6ZM32.4919 13.36H36.8119C36.5719 12.32 35.8679 11.6 34.7319 11.6C33.5159 11.6 32.8119 12.32 32.4919 13.36ZM39.525 16.72L40.565 15.68C40.725 15.888 40.901 16.064 41.109 16.208C41.477 16.464 41.941 16.72 42.565 16.72C43.461 16.72 43.925 16.256 43.925 15.76C43.925 14.48 39.845 15.136 39.845 12.4C39.845 11.2 40.901 10.16 42.645 10.16C43.557 10.16 44.245 10.432 44.693 10.688C44.965 10.832 45.189 11.008 45.365 11.2L44.325 12.24C44.197 12.128 44.053 12.016 43.877 11.92C43.573 11.744 43.157 11.6 42.645 11.6C41.829 11.6 41.445 12 41.445 12.4C41.445 13.68 45.525 13.04 45.525 15.76C45.525 17.04 44.421 18.16 42.565 18.16C41.541 18.16 40.805 17.808 40.293 17.44C39.989 17.232 39.733 16.992 39.525 16.72ZM52.9531 18L49.2731 6.8H51.1131L53.8331 15.2L56.4731 6.8H58.2331L60.8731 15.2L63.5931 6.8H65.4331L61.7531 18H59.9931L57.3531 9.6L54.7131 18H52.9531ZM65.5931 14.16C65.5931 11.92 67.3531 10.16 69.5931 10.16C71.8331 10.16 73.5931 11.92 73.5931 14.16C73.5931 16.4 71.8331 18.16 69.5931 18.16C67.3531 18.16 65.5931 16.4 65.5931 14.16ZM69.5931 16.64C70.9531 16.64 71.9931 15.616 71.9931 14.16C71.9931 12.704 70.9531 11.68 69.5931 11.68C68.2331 11.68 67.1931 12.704 67.1931 14.16C67.1931 15.616 68.2331 16.64 69.5931 16.64ZM75.3544 18V10.32H76.9544V11.36C77.1304 11.152 77.3224 10.944 77.5464 10.768C77.9304 10.464 78.5064 10.16 79.2744 10.16H79.6744V11.84L79.4664 11.808C79.3384 11.792 79.2104 11.76 79.0344 11.76C77.9304 11.76 76.9544 12.72 76.9544 14.08V18H75.3544ZM81.2 18V6.8H82.8V18H81.2ZM90.88 18V16.88C90.72 17.12 90.512 17.328 90.256 17.52C89.824 17.84 89.152 18.16 88.24 18.16C86.32 18.16 84.64 16.48 84.64 14.16C84.64 11.84 86.32 10.16 88.24 10.16C89.152 10.16 89.824 10.48 90.256 10.8C90.512 10.992 90.72 11.2 90.88 11.44V6.8H92.48V18H90.88ZM88.56 16.64C89.84 16.64 90.88 15.616 90.88 14.16C90.88 12.704 89.84 11.68 88.56 11.68C87.28 11.68 86.24 12.704 86.24 14.16C86.24 15.616 87.28 16.64 88.56 16.64ZM96.5675 18L93.8475 10.32H95.6075L97.3675 15.52L99.0475 10.32H100.488L102.168 15.52L103.928 10.32H105.688L102.968 18H101.448L99.7675 12.88L98.0875 18H96.5675ZM107.044 18V10.32H108.644V18H107.044ZM106.884 7.92C106.884 7.36 107.348 6.96 107.844 6.96C108.34 6.96 108.804 7.36 108.804 7.92C108.804 8.48 108.34 8.88 107.844 8.88C107.348 8.88 106.884 8.48 106.884 7.92ZM116.724 18V16.88C116.564 17.12 116.356 17.328 116.1 17.52C115.668 17.84 114.996 18.16 114.084 18.16C112.164 18.16 110.484 16.48 110.484 14.16C110.484 11.84 112.164 10.16 114.084 10.16C114.996 10.16 115.668 10.48 116.1 10.8C116.356 10.992 116.564 11.2 116.724 11.44V6.8H118.324V18H116.724ZM114.404 16.64C115.684 16.64 116.724 15.616 116.724 14.16C116.724 12.704 115.684 11.68 114.404 11.68C113.124 11.68 112.084 12.704 112.084 14.16C112.084 15.616 113.124 16.64 114.404 16.64ZM126.491 15.6L127.451 16.72C127.243 16.992 126.971 17.232 126.651 17.44C126.091 17.808 125.307 18.16 124.171 18.16C121.931 18.16 120.171 16.4 120.171 14.16C120.171 11.92 121.931 10.16 124.091 10.16C126.267 10.16 127.851 11.744 127.851 13.92C127.851 14.16 127.819 14.352 127.803 14.496L127.771 14.72H121.851C122.027 15.76 122.955 16.64 124.251 16.64C124.939 16.64 125.499 16.384 125.883 16.128C126.107 15.984 126.315 15.808 126.491 15.6ZM121.851 13.36H126.171C125.931 12.32 125.227 11.6 124.091 11.6C122.875 11.6 122.171 12.32 121.851 13.36ZM129.604 11.36L130.884 9.76L128.964 9.28L129.364 8.08L131.204 8.8L131.044 6.8H132.324L132.164 8.8L134.004 8.08L134.404 9.28L132.484 9.76L133.764 11.36L132.804 12.16L131.684 10.4L130.564 12.16L129.604 11.36Z" fill="#001931"/>
<path d="M484.9 354.96L485.92 353.7L484.42 353.34L484.66 352.68L486.1 353.16L485.98 351.6H486.7L486.58 353.16L488.02 352.68L488.26 353.34L486.76 353.7L487.78 354.96L487.24 355.38L486.34 354.06L485.44 355.38L484.9 354.96ZM491.735 358.86L492.275 358.248C492.431 358.452 492.611 358.62 492.827 358.764C493.199 359.04 493.775 359.28 494.555 359.28C495.815 359.28 496.475 358.632 496.475 357.72C496.475 355.572 491.915 356.748 491.915 353.76C491.915 352.548 492.947 351.48 494.615 351.48C495.431 351.48 496.031 351.744 496.451 352.02C496.691 352.176 496.895 352.356 497.075 352.56L496.475 353.16C496.343 353.004 496.187 352.872 496.007 352.74C495.683 352.536 495.239 352.32 494.615 352.32C493.463 352.32 492.815 353.004 492.815 353.76C492.815 355.92 497.375 354.732 497.375 357.72C497.375 359.1 496.355 360.12 494.555 360.12C493.595 360.12 492.887 359.82 492.419 359.496C492.143 359.316 491.915 359.1 491.735 358.86ZM499.42 358.44V355.02H498.34V354.24H499C499.324 354.24 499.48 354.036 499.48 353.64V352.32H500.26V354.24H501.52V355.02H500.26V358.44C500.26 359.052 500.56 359.34 501.04 359.34C501.244 359.34 501.448 359.304 501.592 359.256C501.676 359.22 501.76 359.196 501.82 359.16V359.94C501.748 359.976 501.664 360 501.58 360.036C501.436 360.084 501.232 360.12 501.004 360.12C500.008 360.12 499.42 359.532 499.42 358.44ZM506.628 360V359.22C506.508 359.388 506.352 359.544 506.172 359.676C505.848 359.904 505.392 360.12 504.768 360.12C503.568 360.12 502.728 359.28 502.728 358.44C502.728 357.48 503.316 356.88 504.408 356.7L506.628 356.34C506.628 355.488 506.04 354.9 505.188 354.9C504.672 354.9 504.276 355.116 504 355.32C503.844 355.452 503.7 355.584 503.568 355.74L503.028 355.2C503.184 354.996 503.376 354.816 503.592 354.66C503.964 354.384 504.48 354.12 505.188 354.12C506.508 354.12 507.468 355.08 507.468 356.34V360H506.628ZM506.628 357.42V357.06L504.648 357.42C503.928 357.552 503.568 357.9 503.568 358.44C503.568 358.92 503.988 359.34 504.768 359.34C505.86 359.34 506.628 358.572 506.628 357.42ZM509.745 358.44V355.02H508.665V354.24H509.325C509.649 354.24 509.805 354.036 509.805 353.64V352.32H510.585V354.24H511.845V355.02H510.585V358.44C510.585 359.052 510.885 359.34 511.365 359.34C511.569 359.34 511.773 359.304 511.917 359.256C512.001 359.22 512.085 359.196 512.145 359.16V359.94C512.073 359.976 511.989 360 511.905 360.036C511.761 360.084 511.557 360.12 511.329 360.12C510.333 360.12 509.745 359.532 509.745 358.44ZM513.472 357.6V354.24H514.312V357.6C514.312 358.62 515.032 359.34 515.932 359.34C516.892 359.34 517.672 358.572 517.672 357.42V354.24H518.512V360H517.672V359.22C517.552 359.388 517.396 359.544 517.216 359.676C516.892 359.904 516.436 360.12 515.812 360.12C514.492 360.12 513.472 359.1 513.472 357.6ZM519.951 359.1L520.551 358.5C520.659 358.656 520.791 358.8 520.935 358.92C521.187 359.148 521.571 359.34 522.051 359.34C522.903 359.34 523.311 358.92 523.311 358.38C523.311 357.06 520.191 357.72 520.191 355.74C520.191 354.912 520.959 354.12 522.111 354.12C522.723 354.12 523.167 354.324 523.491 354.516C523.671 354.624 523.839 354.756 523.971 354.9L523.371 355.5C523.287 355.392 523.179 355.284 523.059 355.2C522.831 355.056 522.531 354.9 522.111 354.9C521.451 354.9 521.031 355.32 521.031 355.74C521.031 357 524.151 356.34 524.151 358.38C524.151 359.34 523.359 360.12 522.051 360.12C521.331 360.12 520.803 359.868 520.455 359.616C520.251 359.472 520.083 359.304 519.951 359.1ZM527.567 358.86L528.167 358.26C528.323 358.464 528.503 358.632 528.719 358.776C529.091 359.028 529.619 359.28 530.387 359.28C531.647 359.28 532.367 358.56 532.367 357.66C532.367 356.808 531.599 356.04 530.387 356.04H529.547V355.2H530.387C531.407 355.2 532.007 354.612 532.007 353.7C532.007 352.92 531.407 352.32 530.387 352.32C529.751 352.32 529.283 352.56 528.959 352.8C528.767 352.944 528.599 353.1 528.467 353.28L527.867 352.62C528.035 352.416 528.239 352.224 528.491 352.056C528.911 351.768 529.535 351.48 530.387 351.48C531.887 351.48 532.907 352.5 532.907 353.7C532.907 354.42 532.595 354.888 532.271 355.176C532.091 355.344 531.875 355.476 531.647 355.56C531.935 355.644 532.199 355.776 532.427 355.956C532.811 356.28 533.207 356.796 533.207 357.66C533.207 358.908 532.115 360.12 530.387 360.12C529.427 360.12 528.719 359.82 528.251 359.496C527.975 359.316 527.747 359.1 527.567 358.86ZM535.962 360V353.28H534.402V352.74C535.122 352.704 535.566 352.428 535.842 352.152C535.998 351.996 536.118 351.804 536.202 351.6H536.862V360H535.962ZM538.777 359.52C538.777 359.148 539.005 358.92 539.377 358.92C539.749 358.92 539.977 359.148 539.977 359.52C539.977 359.892 539.749 360.12 539.377 360.12C539.005 360.12 538.777 359.892 538.777 359.52ZM544.729 360.12C542.977 360.12 541.357 358.5 541.357 355.8C541.357 353.1 542.989 351.48 544.717 351.48C546.445 351.48 548.077 353.1 548.077 355.8C548.077 358.5 546.457 360.12 544.729 360.12ZM544.729 359.28C545.965 359.28 547.177 358.08 547.177 355.8C547.177 353.52 545.965 352.32 544.717 352.32C543.469 352.32 542.257 353.52 542.257 355.8C542.257 358.08 543.457 359.28 544.729 359.28ZM548.79 358.86L549.39 358.26C549.546 358.464 549.726 358.632 549.942 358.776C550.314 359.028 550.842 359.28 551.61 359.28C552.87 359.28 553.59 358.56 553.59 357.66C553.59 356.808 552.822 356.04 551.61 356.04H550.77V355.2H551.61C552.63 355.2 553.23 354.612 553.23 353.7C553.23 352.92 552.63 352.32 551.61 352.32C550.974 352.32 550.506 352.56 550.182 352.8C549.99 352.944 549.822 353.1 549.69 353.28L549.09 352.62C549.258 352.416 549.462 352.224 549.714 352.056C550.134 351.768 550.758 351.48 551.61 351.48C553.11 351.48 554.13 352.5 554.13 353.7C554.13 354.42 553.818 354.888 553.494 355.176C553.314 355.344 553.098 355.476 552.87 355.56C553.158 355.644 553.422 355.776 553.65 355.956C554.034 356.28 554.43 356.796 554.43 357.66C554.43 358.908 553.338 360.12 551.61 360.12C550.65 360.12 549.942 359.82 549.474 359.496C549.198 359.316 548.97 359.1 548.79 358.86ZM555.805 359.52C555.805 359.148 556.033 358.92 556.405 358.92C556.777 358.92 557.005 359.148 557.005 359.52C557.005 359.892 556.777 360.12 556.405 360.12C556.033 360.12 555.805 359.892 555.805 359.52ZM559.164 359.16H563.544V360H558.144C558.144 356.46 562.644 356.352 562.644 353.94C562.644 352.98 561.996 352.32 560.844 352.32C560.076 352.32 559.656 352.668 559.38 353.04C559.224 353.244 559.116 353.484 559.044 353.76L558.264 353.4C558.372 353.04 558.528 352.716 558.744 352.44C559.128 351.96 559.752 351.48 560.844 351.48C562.476 351.48 563.544 352.56 563.544 353.94C563.544 356.52 559.884 356.94 559.164 359.16ZM568.354 360.12C566.602 360.12 564.982 358.5 564.982 355.8C564.982 353.1 566.614 351.48 568.342 351.48C570.07 351.48 571.702 353.1 571.702 355.8C571.702 358.5 570.082 360.12 568.354 360.12ZM568.354 359.28C569.59 359.28 570.802 358.08 570.802 355.8C570.802 353.52 569.59 352.32 568.342 352.32C567.094 352.32 565.882 353.52 565.882 355.8C565.882 358.08 567.082 359.28 568.354 359.28ZM573.918 359.16H578.298V360H572.898C572.898 356.46 577.398 356.352 577.398 353.94C577.398 352.98 576.75 352.32 575.598 352.32C574.83 352.32 574.41 352.668 574.134 353.04C573.978 353.244 573.87 353.484 573.798 353.76L573.018 353.4C573.126 353.04 573.282 352.716 573.498 352.44C573.882 351.96 574.506 351.48 575.598 351.48C577.23 351.48 578.298 352.56 578.298 353.94C578.298 356.52 574.638 356.94 573.918 359.16ZM581.056 360V353.28H579.496V352.74C580.216 352.704 580.66 352.428 580.936 352.152C581.092 351.996 581.212 351.804 581.296 351.6H581.956V360H581.056Z" fill="#001931"/>
</svg>
